<svg xmlns="http://www.w3.org/2000/svg" width="848" height="1000" version="1.1"><g transform="translate(40)"><path class="link" style="fill: none; stroke: #cccccc; stroke-width: 1px;" d="M 0 500 C 172 500 172 118.421 344 118.421" /><path class="link" style="fill: none; stroke: #cccccc; stroke-width: 1px;" d="M 0 500 C 172 500 172 355.263 344 355.263" /><path class="link" style="fill: none; stroke: #cccccc; stroke-width: 1px;" d="M 0 500 C 172 500 172 618.421 344 618.421" /><path class="link" style="fill: none; stroke: #cccccc; stroke-width: 1px;" d="M 0 500 C 172 500 172 881.579 344 881.579" /><path class="link" style="fill: none; stroke: #cccccc; stroke-width: 1px;" d="M 344 118.421 C 516 118.421 516 26.3158 688 26.3158" /><path class="link" style="fill: none; stroke: #cccccc; stroke-width: 1px;" d="M 344 118.421 C 516 118.421 516 52.6316 688 52.6316" /><path class="link" style="fill: none; stroke: #cccccc; stroke-width: 1px;" d="M 344 118.421 C 516 118.421 516 78.9474 688 78.9474" /><path class="link" style="fill: none; stroke: #cccccc; stroke-width: 1px;" d="M 344 118.421 C 516 118.421 516 105.263 688 105.263" /><path class="link" style="fill: none; stroke: #cccccc; stroke-width: 1px;" d="M 344 118.421 C 516 118.421 516 131.579 688 131.579" /><path class="link" style="fill: none; stroke: #cccccc; stroke-width: 1px;" d="M 344 118.421 C 516 118.421 516 157.895 688 157.895" /><path class="link" style="fill: none; stroke: #cccccc; stroke-width: 1px;" d="M 344 118.421 C 516 118.421 516 184.211 688 184.211" /><path class="link" style="fill: none; stroke: #cccccc; stroke-width: 1px;" d="M 344 118.421 C 516 118.421 516 210.526 688 210.526" /><path class="link" style="fill: none; stroke: #cccccc; stroke-width: 1px;" d="M 344 355.263 C 516 355.263 516 263.158 688 263.158" /><path class="link" style="fill: none; stroke: #cccccc; stroke-width: 1px;" d="M 344 355.263 C 516 355.263 516 289.474 688 289.474" /><path class="link" style="fill: none; stroke: #cccccc; stroke-width: 1px;" d="M 344 355.263 C 516 355.263 516 315.789 688 315.789" /><path class="link" style="fill: none; stroke: #cccccc; stroke-width: 1px;" d="M 344 355.263 C 516 355.263 516 342.105 688 342.105" /><path class="link" style="fill: none; stroke: #cccccc; stroke-width: 1px;" d="M 344 355.263 C 516 355.263 516 368.421 688 368.421" /><path class="link" style="fill: none; stroke: #cccccc; stroke-width: 1px;" d="M 344 355.263 C 516 355.263 516 394.737 688 394.737" /><path class="link" style="fill: none; stroke: #cccccc; stroke-width: 1px;" d="M 344 355.263 C 516 355.263 516 421.053 688 421.053" /><path class="link" style="fill: none; stroke: #cccccc; stroke-width: 1px;" d="M 344 355.263 C 516 355.263 516 447.368 688 447.368" /><path class="link" style="fill: none; stroke: #cccccc; stroke-width: 1px;" d="M 344 618.421 C 516 618.421 516 500 688 500" /><path class="link" style="fill: none; stroke: #cccccc; stroke-width: 1px;" d="M 344 618.421 C 516 618.421 516 526.316 688 526.316" /><path class="link" style="fill: none; stroke: #cccccc; stroke-width: 1px;" d="M 344 618.421 C 516 618.421 516 552.632 688 552.632" /><path class="link" style="fill: none; stroke: #cccccc; stroke-width: 1px;" d="M 344 618.421 C 516 618.421 516 578.947 688 578.947" /><path class="link" style="fill: none; stroke: #cccccc; stroke-width: 1px;" d="M 344 618.421 C 516 618.421 516 605.263 688 605.263" /><path class="link" style="fill: none; stroke: #cccccc; stroke-width: 1px;" d="M 344 618.421 C 516 618.421 516 631.579 688 631.579" /><path class="link" style="fill: none; stroke: #cccccc; stroke-width: 1px;" d="M 344 618.421 C 516 618.421 516 657.895 688 657.895" /><path class="link" style="fill: none; stroke: #cccccc; stroke-width: 1px;" d="M 344 618.421 C 516 618.421 516 684.211 688 684.211" /><path class="link" style="fill: none; stroke: #cccccc; stroke-width: 1px;" d="M 344 618.421 C 516 618.421 516 710.526 688 710.526" /><path class="link" style="fill: none; stroke: #cccccc; stroke-width: 1px;" d="M 344 618.421 C 516 618.421 516 736.842 688 736.842" /><path class="link" style="fill: none; stroke: #cccccc; stroke-width: 1px;" d="M 344 881.579 C 516 881.579 516 789.474 688 789.474" /><path class="link" style="fill: none; stroke: #cccccc; stroke-width: 1px;" d="M 344 881.579 C 516 881.579 516 815.789 688 815.789" /><path class="link" style="fill: none; stroke: #cccccc; stroke-width: 1px;" d="M 344 881.579 C 516 881.579 516 842.105 688 842.105" /><path class="link" style="fill: none; stroke: #cccccc; stroke-width: 1px;" d="M 344 881.579 C 516 881.579 516 868.421 688 868.421" /><path class="link" style="fill: none; stroke: #cccccc; stroke-width: 1px;" d="M 344 881.579 C 516 881.579 516 894.737 688 894.737" /><path class="link" style="fill: none; stroke: #cccccc; stroke-width: 1px;" d="M 344 881.579 C 516 881.579 516 921.053 688 921.053" /><path class="link" style="fill: none; stroke: #cccccc; stroke-width: 1px;" d="M 344 881.579 C 516 881.579 516 947.368 688 947.368" /><path class="link" style="fill: none; stroke: #cccccc; stroke-width: 1px;" d="M 344 881.579 C 516 881.579 516 973.684 688 973.684" /><g class="node" transform="translate(0 500)"><circle style="fill: #eeeeee; stroke: #999999; stroke-width: 1px;" r="4.5" /><text style="font-family: Arial, Helvetica; font-size: 11px;" text-anchor="end" dx="-8" dy="3" /></g><g class="node" transform="translate(344 118.421)"><circle style="fill: #eeeeee; stroke: #999999; stroke-width: 1px;" r="4.5" /><text style="font-family: Arial, Helvetica; font-size: 11px;" text-anchor="end" dx="-8" dy="3">Female</text></g><g class="node" transform="translate(688 26.3158)"><circle style="fill: #eeeeee; stroke: #999999; stroke-width: 1px;" r="4.5" /><text style="font-family: Arial, Helvetica; font-size: 11px;" text-anchor="start" dx="8" dy="3">Beaker</text></g><g class="node" transform="translate(688 52.6316)"><circle style="fill: #eeeeee; stroke: #999999; stroke-width: 1px;" r="4.5" /><text style="font-family: Arial, Helvetica; font-size: 11px;" text-anchor="start" dx="8" dy="3">Flint flakes</text></g><g class="node" transform="translate(688 78.9474)"><circle style="fill: #eeeeee; stroke: #999999; stroke-width: 1px;" r="4.5" /><text style="font-family: Arial, Helvetica; font-size: 11px;" text-anchor="start" dx="8" dy="3">Jet beads</text></g><g class="node" transform="translate(688 105.263)"><circle style="fill: #eeeeee; stroke: #999999; stroke-width: 1px;" r="4.5" /><text style="font-family: Arial, Helvetica; font-size: 11px;" text-anchor="start" dx="8" dy="3">Food Vessel</text></g><g class="node" transform="translate(688 131.579)"><circle style="fill: #eeeeee; stroke: #999999; stroke-width: 1px;" r="4.5" /><text style="font-family: Arial, Helvetica; font-size: 11px;" text-anchor="start" dx="8" dy="3">Red ochre</text></g><g class="node" transform="translate(688 157.895)"><circle style="fill: #eeeeee; stroke: #999999; stroke-width: 1px;" r="4.5" /><text style="font-family: Arial, Helvetica; font-size: 11px;" text-anchor="start" dx="8" dy="3">Jet button</text></g><g class="node" transform="translate(688 184.211)"><circle style="fill: #eeeeee; stroke: #999999; stroke-width: 1px;" r="4.5" /><text style="font-family: Arial, Helvetica; font-size: 11px;" text-anchor="start" dx="8" dy="3">Flint knife</text></g><g class="node" transform="translate(688 210.526)"><circle style="fill: #eeeeee; stroke: #999999; stroke-width: 1px;" r="4.5" /><text style="font-family: Arial, Helvetica; font-size: 11px;" text-anchor="start" dx="8" dy="3">Bronze dagger</text></g><g class="node" transform="translate(344 355.263)"><circle style="fill: #eeeeee; stroke: #999999; stroke-width: 1px;" r="4.5" /><text style="font-family: Arial, Helvetica; font-size: 11px;" text-anchor="end" dx="-8" dy="3">Male</text></g><g class="node" transform="translate(688 263.158)"><circle style="fill: #eeeeee; stroke: #999999; stroke-width: 1px;" r="4.5" /><text style="font-family: Arial, Helvetica; font-size: 11px;" text-anchor="start" dx="8" dy="3">Bronze dagger</text></g><g class="node" transform="translate(688 289.474)"><circle style="fill: #eeeeee; stroke: #999999; stroke-width: 1px;" r="4.5" /><text style="font-family: Arial, Helvetica; font-size: 11px;" text-anchor="start" dx="8" dy="3">Beaker</text></g><g class="node" transform="translate(688 315.789)"><circle style="fill: #eeeeee; stroke: #999999; stroke-width: 1px;" r="4.5" /><text style="font-family: Arial, Helvetica; font-size: 11px;" text-anchor="start" dx="8" dy="3">Flint flakes</text></g><g class="node" transform="translate(688 342.105)"><circle style="fill: #eeeeee; stroke: #999999; stroke-width: 1px;" r="4.5" /><text style="font-family: Arial, Helvetica; font-size: 11px;" text-anchor="start" dx="8" dy="3">Bone pin</text></g><g class="node" transform="translate(688 368.421)"><circle style="fill: #eeeeee; stroke: #999999; stroke-width: 1px;" r="4.5" /><text style="font-family: Arial, Helvetica; font-size: 11px;" text-anchor="start" dx="8" dy="3">Antler pick</text></g><g class="node" transform="translate(688 394.737)"><circle style="fill: #eeeeee; stroke: #999999; stroke-width: 1px;" r="4.5" /><text style="font-family: Arial, Helvetica; font-size: 11px;" text-anchor="start" dx="8" dy="3">Flint knife</text></g><g class="node" transform="translate(688 421.053)"><circle style="fill: #eeeeee; stroke: #999999; stroke-width: 1px;" r="4.5" /><text style="font-family: Arial, Helvetica; font-size: 11px;" text-anchor="start" dx="8" dy="3">Food Vessel</text></g><g class="node" transform="translate(688 447.368)"><circle style="fill: #eeeeee; stroke: #999999; stroke-width: 1px;" r="4.5" /><text style="font-family: Arial, Helvetica; font-size: 11px;" text-anchor="start" dx="8" dy="3">Jet button</text></g><g class="node" transform="translate(344 618.421)"><circle style="fill: #eeeeee; stroke: #999999; stroke-width: 1px;" r="4.5" /><text style="font-family: Arial, Helvetica; font-size: 11px;" text-anchor="end" dx="-8" dy="3">Possible Female</text></g><g class="node" transform="translate(688 500)"><circle style="fill: #eeeeee; stroke: #999999; stroke-width: 1px;" r="4.5" /><text style="font-family: Arial, Helvetica; font-size: 11px;" text-anchor="start" dx="8" dy="3">Flint flakes</text></g><g class="node" transform="translate(688 526.316)"><circle style="fill: #eeeeee; stroke: #999999; stroke-width: 1px;" r="4.5" /><text style="font-family: Arial, Helvetica; font-size: 11px;" text-anchor="start" dx="8" dy="3">Flint hammer</text></g><g class="node" transform="translate(688 552.632)"><circle style="fill: #eeeeee; stroke: #999999; stroke-width: 1px;" r="4.5" /><text style="font-family: Arial, Helvetica; font-size: 11px;" text-anchor="start" dx="8" dy="3">Jet button</text></g><g class="node" transform="translate(688 578.947)"><circle style="fill: #eeeeee; stroke: #999999; stroke-width: 1px;" r="4.5" /><text style="font-family: Arial, Helvetica; font-size: 11px;" text-anchor="start" dx="8" dy="3">Shale Beads</text></g><g class="node" transform="translate(688 605.263)"><circle style="fill: #eeeeee; stroke: #999999; stroke-width: 1px;" r="4.5" /><text style="font-family: Arial, Helvetica; font-size: 11px;" text-anchor="start" dx="8" dy="3">Food Vessel</text></g><g class="node" transform="translate(688 631.579)"><circle style="fill: #eeeeee; stroke: #999999; stroke-width: 1px;" r="4.5" /><text style="font-family: Arial, Helvetica; font-size: 11px;" text-anchor="start" dx="8" dy="3">Flint scraper</text></g><g class="node" transform="translate(688 657.895)"><circle style="fill: #eeeeee; stroke: #999999; stroke-width: 1px;" r="4.5" /><text style="font-family: Arial, Helvetica; font-size: 11px;" text-anchor="start" dx="8" dy="3">Flint knife</text></g><g class="node" transform="translate(688 684.211)"><circle style="fill: #eeeeee; stroke: #999999; stroke-width: 1px;" r="4.5" /><text style="font-family: Arial, Helvetica; font-size: 11px;" text-anchor="start" dx="8" dy="3">Collared urn</text></g><g class="node" transform="translate(688 710.526)"><circle style="fill: #eeeeee; stroke: #999999; stroke-width: 1px;" r="4.5" /><text style="font-family: Arial, Helvetica; font-size: 11px;" text-anchor="start" dx="8" dy="3">Bronze dagger</text></g><g class="node" transform="translate(688 736.842)"><circle style="fill: #eeeeee; stroke: #999999; stroke-width: 1px;" r="4.5" /><text style="font-family: Arial, Helvetica; font-size: 11px;" text-anchor="start" dx="8" dy="3">Jet beads</text></g><g class="node" transform="translate(344 881.579)"><circle style="fill: #eeeeee; stroke: #999999; stroke-width: 1px;" r="4.5" /><text style="font-family: Arial, Helvetica; font-size: 11px;" text-anchor="end" dx="-8" dy="3">Possible Male</text></g><g class="node" transform="translate(688 789.474)"><circle style="fill: #eeeeee; stroke: #999999; stroke-width: 1px;" r="4.5" /><text style="font-family: Arial, Helvetica; font-size: 11px;" text-anchor="start" dx="8" dy="3">Flint arrowhead</text></g><g class="node" transform="translate(688 815.789)"><circle style="fill: #eeeeee; stroke: #999999; stroke-width: 1px;" r="4.5" /><text style="font-family: Arial, Helvetica; font-size: 11px;" text-anchor="start" dx="8" dy="3">Food Vessel</text></g><g class="node" transform="translate(688 842.105)"><circle style="fill: #eeeeee; stroke: #999999; stroke-width: 1px;" r="4.5" /><text style="font-family: Arial, Helvetica; font-size: 11px;" text-anchor="start" dx="8" dy="3">Flint knife</text></g><g class="node" transform="translate(688 868.421)"><circle style="fill: #eeeeee; stroke: #999999; stroke-width: 1px;" r="4.5" /><text style="font-family: Arial, Helvetica; font-size: 11px;" text-anchor="start" dx="8" dy="3">Flint flakes</text></g><g class="node" transform="translate(688 894.737)"><circle style="fill: #eeeeee; stroke: #999999; stroke-width: 1px;" r="4.5" /><text style="font-family: Arial, Helvetica; font-size: 11px;" text-anchor="start" dx="8" dy="3">Urn</text></g><g class="node" transform="translate(688 921.053)"><circle style="fill: #eeeeee; stroke: #999999; stroke-width: 1px;" r="4.5" /><text style="font-family: Arial, Helvetica; font-size: 11px;" text-anchor="start" dx="8" dy="3">Stitched hide</text></g><g class="node" transform="translate(688 947.368)"><circle style="fill: #eeeeee; stroke: #999999; stroke-width: 1px;" r="4.5" /><text style="font-family: Arial, Helvetica; font-size: 11px;" text-anchor="start" dx="8" dy="3">Beaker</text></g><g class="node" transform="translate(688 973.684)"><circle style="fill: #eeeeee; stroke: #999999; stroke-width: 1px;" r="4.5" /><text style="font-family: Arial, Helvetica; font-size: 11px;" text-anchor="start" dx="8" dy="3">Bronze dagger</text></g></g></svg>