<svg width="1536px" height="705px" style="" class="" version="1.1" xmlns="http://www.w3.org/2000/svg"><g class="leaflet-zoom-hide"><g class="layer" transform="translate(732,379)"><path class="node" d="M36,172m0,3a3,3 0 1,1 0,-6a3,3 0 1,1 0,6z" style="fill: rgb(11, 12, 11); stroke: rgb(11, 12, 11); opacity: 0.8;"></path><path class="node" d="M120,54m0,3a3,3 0 1,1 0,-6a3,3 0 1,1 0,6z" style="fill: rgb(11, 12, 11); stroke: rgb(11, 12, 11); opacity: 0.8;"></path><path class="node" d="M107,41m0,3a3,3 0 1,1 0,-6a3,3 0 1,1 0,6z" style="fill: rgb(11, 12, 11); stroke: rgb(11, 12, 11); opacity: 0.8;"></path><path class="node" d="M-15,-32m0,3a3,3 0 1,1 0,-6a3,3 0 1,1 0,6z" style="fill: rgb(11, 12, 11); stroke: rgb(11, 12, 11); opacity: 0.8;"></path><path class="node" d="M95,-39m0,3a3,3 0 1,1 0,-6a3,3 0 1,1 0,6z" style="fill: rgb(11, 12, 11); stroke: rgb(11, 12, 11); opacity: 0.8;"></path><path class="node" d="M2,-103m0,3a3,3 0 1,1 0,-6a3,3 0 1,1 0,6z" style="fill: rgb(11, 12, 11); stroke: rgb(11, 12, 11); opacity: 0.8;"></path><path class="node" d="M99,-104m0,3a3,3 0 1,1 0,-6a3,3 0 1,1 0,6z" style="fill: rgb(11, 12, 11); stroke: rgb(11, 12, 11); opacity: 0.8;"></path><path class="node" d="M21,-137m0,3a3,3 0 1,1 0,-6a3,3 0 1,1 0,6z" style="fill: rgb(11, 12, 11); stroke: rgb(11, 12, 11); opacity: 0.8;"></path><path class="node" d="M88,-141m0,3a3,3 0 1,1 0,-6a3,3 0 1,1 0,6z" style="fill: rgb(11, 12, 11); stroke: rgb(11, 12, 11); opacity: 0.8;"></path><path class="node" d="M-22,-173m0,3a3,3 0 1,1 0,-6a3,3 0 1,1 0,6z" style="fill: rgb(11, 12, 11); stroke: rgb(11, 12, 11); opacity: 0.8;"></path><path class="node" d="M82,-184m0,3a3,3 0 1,1 0,-6a3,3 0 1,1 0,6z" style="fill: rgb(11, 12, 11); stroke: rgb(11, 12, 11); opacity: 0.8;"></path><path class="node" d="M78,79m0,3a3,3 0 1,1 0,-6a3,3 0 1,1 0,6z" style="fill: rgb(11, 12, 11); stroke: rgb(11, 12, 11); opacity: 0.8;"></path><path class="node" d="M136,76m0,3a3,3 0 1,1 0,-6a3,3 0 1,1 0,6z" style="fill: rgb(11, 12, 11); stroke: rgb(11, 12, 11); opacity: 0.8;"></path><path class="node" d="M128,63m0,3a3,3 0 1,1 0,-6a3,3 0 1,1 0,6z" style="fill: rgb(11, 12, 11); stroke: rgb(11, 12, 11); opacity: 0.8;"></path><path class="node" d="M87,58m0,3a3,3 0 1,1 0,-6a3,3 0 1,1 0,6z" style="fill: rgb(11, 12, 11); stroke: rgb(11, 12, 11); opacity: 0.8;"></path><path class="node" d="M-65,50m0,3a3,3 0 1,1 0,-6a3,3 0 1,1 0,6z" style="fill: rgb(11, 12, 11); stroke: rgb(11, 12, 11); opacity: 0.8;"></path><path class="node" d="M-65,50m0,3a3,3 0 1,1 0,-6a3,3 0 1,1 0,6z" style="fill: rgb(11, 12, 11); stroke: rgb(11, 12, 11); opacity: 0.8;"></path><path class="node" d="M8,14m0,3a3,3 0 1,1 0,-6a3,3 0 1,1 0,6z" style="fill: rgb(11, 12, 11); stroke: rgb(11, 12, 11); opacity: 0.8;"></path><path class="node" d="M-21,9m0,3a3,3 0 1,1 0,-6a3,3 0 1,1 0,6z" style="fill: rgb(11, 12, 11); stroke: rgb(11, 12, 11); opacity: 0.8;"></path><path class="node" d="M74,8m0,3a3,3 0 1,1 0,-6a3,3 0 1,1 0,6z" style="fill: rgb(11, 12, 11); stroke: rgb(11, 12, 11); opacity: 0.8;"></path><path class="node" d="M48,7m0,3a3,3 0 1,1 0,-6a3,3 0 1,1 0,6z" style="fill: rgb(11, 12, 11); stroke: rgb(11, 12, 11); opacity: 0.8;"></path><path class="node" d="M31,3m0,3a3,3 0 1,1 0,-6a3,3 0 1,1 0,6z" style="fill: rgb(11, 12, 11); stroke: rgb(11, 12, 11); opacity: 0.8;"></path><path class="node" d="M21,-16m0,3a3,3 0 1,1 0,-6a3,3 0 1,1 0,6z" style="fill: rgb(11, 12, 11); stroke: rgb(11, 12, 11); opacity: 0.8;"></path><path class="node" d="M-7,-20m0,3a3,3 0 1,1 0,-6a3,3 0 1,1 0,6z" style="fill: rgb(11, 12, 11); stroke: rgb(11, 12, 11); opacity: 0.8;"></path><path class="node" d="M-18,-24m0,3a3,3 0 1,1 0,-6a3,3 0 1,1 0,6z" style="fill: rgb(11, 12, 11); stroke: rgb(11, 12, 11); opacity: 0.8;"></path><path class="node" d="M45,-52m0,3a3,3 0 1,1 0,-6a3,3 0 1,1 0,6z" style="fill: rgb(11, 12, 11); stroke: rgb(11, 12, 11); opacity: 0.8;"></path><path class="node" d="M25,-86m0,3a3,3 0 1,1 0,-6a3,3 0 1,1 0,6z" style="fill: rgb(11, 12, 11); stroke: rgb(11, 12, 11); opacity: 0.8;"></path><path class="node" d="M24,-89m0,3a3,3 0 1,1 0,-6a3,3 0 1,1 0,6z" style="fill: rgb(11, 12, 11); stroke: rgb(11, 12, 11); opacity: 0.8;"></path><path class="node" d="M25,-89m0,3a3,3 0 1,1 0,-6a3,3 0 1,1 0,6z" style="fill: rgb(11, 12, 11); stroke: rgb(11, 12, 11); opacity: 0.8;"></path><path class="node" d="M27,-91m0,3a3,3 0 1,1 0,-6a3,3 0 1,1 0,6z" style="fill: rgb(11, 12, 11); stroke: rgb(11, 12, 11); opacity: 0.8;"></path><path class="node" d="M14,-92m0,3a3,3 0 1,1 0,-6a3,3 0 1,1 0,6z" style="fill: rgb(11, 12, 11); stroke: rgb(11, 12, 11); opacity: 0.8;"></path><path class="node" d="M25,-92m0,3a3,3 0 1,1 0,-6a3,3 0 1,1 0,6z" style="fill: rgb(11, 12, 11); stroke: rgb(11, 12, 11); opacity: 0.8;"></path><path class="node" d="M26,-93m0,3a3,3 0 1,1 0,-6a3,3 0 1,1 0,6z" style="fill: rgb(11, 12, 11); stroke: rgb(11, 12, 11); opacity: 0.8;"></path><path class="node" d="M15,-94m0,3a3,3 0 1,1 0,-6a3,3 0 1,1 0,6z" style="fill: rgb(11, 12, 11); stroke: rgb(11, 12, 11); opacity: 0.8;"></path><path class="node" d="M12,-94m0,3a3,3 0 1,1 0,-6a3,3 0 1,1 0,6z" style="fill: rgb(11, 12, 11); stroke: rgb(11, 12, 11); opacity: 0.8;"></path><path class="node" d="M20,-105m0,3a3,3 0 1,1 0,-6a3,3 0 1,1 0,6z" style="fill: rgb(11, 12, 11); stroke: rgb(11, 12, 11); opacity: 0.8;"></path><path class="node" d="M-3,-109m0,3a3,3 0 1,1 0,-6a3,3 0 1,1 0,6z" style="fill: rgb(11, 12, 11); stroke: rgb(11, 12, 11); opacity: 0.8;"></path><path class="node" d="M10,-127m0,3a3,3 0 1,1 0,-6a3,3 0 1,1 0,6z" style="fill: rgb(11, 12, 11); stroke: rgb(11, 12, 11); opacity: 0.8;"></path><path class="node" d="M23,-134m0,3a3,3 0 1,1 0,-6a3,3 0 1,1 0,6z" style="fill: rgb(11, 12, 11); stroke: rgb(11, 12, 11); opacity: 0.8;"></path><path class="node" d="M94,-139m0,3a3,3 0 1,1 0,-6a3,3 0 1,1 0,6z" style="fill: rgb(11, 12, 11); stroke: rgb(11, 12, 11); opacity: 0.8;"></path><path class="node" d="M72,-146m0,3a3,3 0 1,1 0,-6a3,3 0 1,1 0,6z" style="fill: rgb(11, 12, 11); stroke: rgb(11, 12, 11); opacity: 0.8;"></path><path class="node" d="M65,-149m0,3a3,3 0 1,1 0,-6a3,3 0 1,1 0,6z" style="fill: rgb(11, 12, 11); stroke: rgb(11, 12, 11); opacity: 0.8;"></path><path class="node" d="M43,-149m0,3a3,3 0 1,1 0,-6a3,3 0 1,1 0,6z" style="fill: rgb(11, 12, 11); stroke: rgb(11, 12, 11); opacity: 0.8;"></path><path class="node" d="M69,-155m0,3a3,3 0 1,1 0,-6a3,3 0 1,1 0,6z" style="fill: rgb(11, 12, 11); stroke: rgb(11, 12, 11); opacity: 0.8;"></path><path class="node" d="M25,-155m0,3a3,3 0 1,1 0,-6a3,3 0 1,1 0,6z" style="fill: rgb(11, 12, 11); stroke: rgb(11, 12, 11); opacity: 0.8;"></path><path class="node" d="M43,-156m0,3a3,3 0 1,1 0,-6a3,3 0 1,1 0,6z" style="fill: rgb(11, 12, 11); stroke: rgb(11, 12, 11); opacity: 0.8;"></path><path class="node" d="M23,-161m0,3a3,3 0 1,1 0,-6a3,3 0 1,1 0,6z" style="fill: rgb(11, 12, 11); stroke: rgb(11, 12, 11); opacity: 0.8;"></path><path class="node" d="M57,-167m0,3a3,3 0 1,1 0,-6a3,3 0 1,1 0,6z" style="fill: rgb(11, 12, 11); stroke: rgb(11, 12, 11); opacity: 0.8;"></path><path class="node" d="M48,-167m0,3a3,3 0 1,1 0,-6a3,3 0 1,1 0,6z" style="fill: rgb(11, 12, 11); stroke: rgb(11, 12, 11); opacity: 0.8;"></path><path class="node" d="M25,-168m0,3a3,3 0 1,1 0,-6a3,3 0 1,1 0,6z" style="fill: rgb(11, 12, 11); stroke: rgb(11, 12, 11); opacity: 0.8;"></path><path class="node" d="M54,-169m0,3a3,3 0 1,1 0,-6a3,3 0 1,1 0,6z" style="fill: rgb(11, 12, 11); stroke: rgb(11, 12, 11); opacity: 0.8;"></path><path class="node" d="M53,-169m0,3a3,3 0 1,1 0,-6a3,3 0 1,1 0,6z" style="fill: rgb(11, 12, 11); stroke: rgb(11, 12, 11); opacity: 0.8;"></path><path class="node" d="M25,-172m0,3a3,3 0 1,1 0,-6a3,3 0 1,1 0,6z" style="fill: rgb(11, 12, 11); stroke: rgb(11, 12, 11); opacity: 0.8;"></path><path class="node" d="M7,-173m0,3a3,3 0 1,1 0,-6a3,3 0 1,1 0,6z" style="fill: rgb(11, 12, 11); stroke: rgb(11, 12, 11); opacity: 0.8;"></path><path class="node" d="M-2,-180m0,3a3,3 0 1,1 0,-6a3,3 0 1,1 0,6z" style="fill: rgb(11, 12, 11); stroke: rgb(11, 12, 11); opacity: 0.8;"></path><path class="node" d="M37,-188m0,3a3,3 0 1,1 0,-6a3,3 0 1,1 0,6z" style="fill: rgb(11, 12, 11); stroke: rgb(11, 12, 11); opacity: 0.8;"></path><path class="node" d="M1,-192m0,3a3,3 0 1,1 0,-6a3,3 0 1,1 0,6z" style="fill: rgb(11, 12, 11); stroke: rgb(11, 12, 11); opacity: 0.8;"></path><path class="node" d="M-32,-195m0,3a3,3 0 1,1 0,-6a3,3 0 1,1 0,6z" style="fill: rgb(11, 12, 11); stroke: rgb(11, 12, 11); opacity: 0.8;"></path><path class="node" d="M2,-199m0,3a3,3 0 1,1 0,-6a3,3 0 1,1 0,6z" style="fill: rgb(11, 12, 11); stroke: rgb(11, 12, 11); opacity: 0.8;"></path><path class="node" d="M10,-199m0,3a3,3 0 1,1 0,-6a3,3 0 1,1 0,6z" style="fill: rgb(11, 12, 11); stroke: rgb(11, 12, 11); opacity: 0.8;"></path><path class="node" d="M-6,-200m0,3a3,3 0 1,1 0,-6a3,3 0 1,1 0,6z" style="fill: rgb(11, 12, 11); stroke: rgb(11, 12, 11); opacity: 0.8;"></path><path class="node" d="M8,-207m0,3a3,3 0 1,1 0,-6a3,3 0 1,1 0,6z" style="fill: rgb(11, 12, 11); stroke: rgb(11, 12, 11); opacity: 0.8;"></path><path class="node" d="M31,-207m0,3a3,3 0 1,1 0,-6a3,3 0 1,1 0,6z" style="fill: rgb(11, 12, 11); stroke: rgb(11, 12, 11); opacity: 0.8;"></path><path class="node" d="M15,-211m0,3a3,3 0 1,1 0,-6a3,3 0 1,1 0,6z" style="fill: rgb(11, 12, 11); stroke: rgb(11, 12, 11); opacity: 0.8;"></path></g></g></svg>